HIERARCHY
ROOT Pelvis
{
	OFFSET 0.000000 0.000000 0.000000
	CHANNELS 6 Xposition Yposition Zposition Xrotation Yrotation Zrotation
	JOINT LeftUpLeg_virtual
	{
		OFFSET 0.000000 0.000000 0.000000
		CHANNELS 3 Xrotation Yrotation Zrotation
		JOINT LeftUpLeg
		{
			OFFSET 18.735201 -5.666702 -4.541200
			CHANNELS 3 Xrotation Yrotation Zrotation
			JOINT LeftLeg
			{
				OFFSET -0.021200 -31.938179 0.493100
				CHANNELS 3 Xrotation Yrotation Zrotation
				JOINT LeftFoot
				{
					OFFSET 0.021200 -31.938179 -4.336299
					CHANNELS 3 Xrotation Yrotation Zrotation
					JOINT LeftToeBase
					{
						OFFSET 0.943001 -26.722000 15.023500
						CHANNELS 3 Xrotation Yrotation Zrotation
						End Site
						{
							OFFSET 0 0 0
						}
					}
				}
			}
		}
	}
	JOINT RightUpLeg_virtual
	{
		OFFSET 0.000000 0.000000 0.000000
		CHANNELS 3 Xrotation Yrotation Zrotation
		JOINT RightUpLeg
		{
			OFFSET -18.735201 -5.666702 -4.541200
			CHANNELS 3 Xrotation Yrotation Zrotation
			JOINT RightLeg
			{
				OFFSET 0.018946 -31.938133 0.493100
				CHANNELS 3 Xrotation Yrotation Zrotation
				JOINT RightFoot
				{
					OFFSET -0.018946 -31.938126 -4.336299
					CHANNELS 3 Xrotation Yrotation Zrotation
					JOINT RightToeBase
					{
						OFFSET -0.943001 -26.722004 15.023500
						CHANNELS 3 Xrotation Yrotation Zrotation
						End Site
						{
							OFFSET 0 0 0
						}
					}
				}
			}
		}
	}
	JOINT Hips_virtual
	{
		OFFSET 0.000000 0.000000 0.000000
		CHANNELS 3 Xrotation Yrotation Zrotation
		JOINT Hips
		{
			OFFSET -0.000000 -0.000000 -0.000000
			CHANNELS 3 Xrotation Yrotation Zrotation
			JOINT Spine
			{
				OFFSET 0.000000 10.199997 -0.299500
				CHANNELS 3 Xrotation Yrotation Zrotation
				JOINT Spine1
				{
					OFFSET 0.000000 11.900002 -1.516600
					CHANNELS 3 Xrotation Yrotation Zrotation
					JOINT Spine2
					{
						OFFSET 0.000000 13.600006 -2.842500
						CHANNELS 3 Xrotation Yrotation Zrotation
						JOINT Neck_virtual
						{
							OFFSET 0.000000 0.000000 0.000000
							CHANNELS 3 Xrotation Yrotation Zrotation
							JOINT Neck
							{
								OFFSET 0.000000 9.624100 -2.890100
								CHANNELS 3 Xrotation Yrotation Zrotation
								JOINT Head
								{
									OFFSET 0.000000 14.068802 -1.351900
									CHANNELS 3 Xrotation Yrotation Zrotation
									End Site
									{
										OFFSET 0 0 0
									}
								}
							}
						}
						JOINT LeftShoulder_virtual
						{
							OFFSET 0.000000 0.000000 0.000000
							CHANNELS 3 Xrotation Yrotation Zrotation
							JOINT LeftShoulder
							{
								OFFSET 15.263000 10.923401 -0.547700
								CHANNELS 3 Xrotation Yrotation Zrotation
								JOINT LeftArm
								{
									OFFSET 25.438599 -2.830597 -13.032500
									CHANNELS 3 Xrotation Yrotation Zrotation
									JOINT LeftForeArm
									{
										OFFSET 29.960503 0.000000 0.000000
										CHANNELS 3 Xrotation Yrotation Zrotation
										JOINT LeftHand
										{
											OFFSET 27.849251 0.000000 0.000000
											CHANNELS 3 Xrotation Yrotation Zrotation
											End Site
											{
												OFFSET 0 0 0
											}
										}
									}
								}
							}
						}
						JOINT RightShoulder_virtual
						{
							OFFSET 0.000000 0.000000 0.000000
							CHANNELS 3 Xrotation Yrotation Zrotation
							JOINT RightShoulder
							{
								OFFSET -15.263000 10.923401 -0.547700
								CHANNELS 3 Xrotation Yrotation Zrotation
								JOINT RightArm
								{
									OFFSET -25.438599 -2.830597 -13.032500
									CHANNELS 3 Xrotation Yrotation Zrotation
									JOINT RightForeArm
									{
										OFFSET -29.960503 0.000000 0.000000
										CHANNELS 3 Xrotation Yrotation Zrotation
										JOINT RightHand
										{
											OFFSET -27.849251 0.000000 0.000000
											CHANNELS 3 Xrotation Yrotation Zrotation
											End Site
											{
												OFFSET 0 0 0
											}
										}
									}
								}
							}
						}
					}
				}
			}
		}
	}
}
MOTION
Frames: 9
Frame Time: 0.03333333
-6.565781 85.570992 0.522530 0.000000 0.000000 0.000000 51.520776 -70.887644 52.419011 -57.392707 1.855528 -1.820455 46.028433 -9.886946 1.574426 -5.400514 -0.303751 -1.198304 0.000000 0.000000 0.000000 51.520776 -70.887644 52.419011 -46.303249 -2.267288 -21.041627 51.217212 -3.735681 -2.127849 -16.851453 -3.856761 17.581011 0.000000 0.000000 0.000000 51.520776 -70.887644 52.419011 0.000002 0.000000 0.000000 7.781197 3.350109 4.576840 12.707904 6.406376 6.655394 0.000000 0.000000 0.000000 12.728356 6.436529 6.586131 1.352263 -0.200029 0.900079 0.000000 0.000000 0.000000 12.728356 6.436529 6.586131 0.608283 -2.105585 -11.581397 -46.459172 -29.078817 -92.550709 -0.000004 -20.859002 -0.000007 0.000000 0.000000 0.000000 12.728356 6.436529 6.586131 -0.784376 15.466933 22.252676 -56.162873 25.008348 77.070933 0.000003 0.015617 -0.000006 0.000000 0.000000 0.000000 
-6.570419 85.584129 0.575235 0.000000 0.000000 0.000000 51.437758 -70.870610 52.323801 -57.359410 1.854356 -1.866482 46.004432 -9.854751 1.573065 -5.395002 -0.310971 -1.150127 0.000000 0.000000 0.000000 51.437758 -70.870610 52.323801 -46.222605 -2.283959 -21.093849 51.123904 -3.695826 -2.098699 -16.818045 -3.896607 17.601355 0.000000 0.000000 0.000000 51.437758 -70.870610 52.323801 0.000002 0.000001 -0.000000 7.782400 3.343168 4.562387 12.722936 6.393026 6.642685 0.000000 0.000000 0.000000 12.744202 6.422143 6.572912 1.421262 -0.181577 0.900832 0.000000 0.000000 0.000000 12.744202 6.422143 6.572912 0.608189 -2.112951 -11.540779 -46.406385 -29.046291 -92.578167 -0.000004 -20.879916 0.000002 0.000000 0.000000 0.000000 12.744202 6.422143 6.572912 -0.774895 15.458359 22.231161 -54.597291 24.896571 76.442917 0.000007 2.873085 0.000001 0.000000 0.000000 0.000000 
-6.570700 85.595001 0.629656 0.000000 0.000000 0.000000 51.369019 -70.848063 52.246316 -57.336665 1.829479 -1.911365 45.969881 -9.745919 1.556364 -5.363757 -0.315368 -1.128343 0.000000 0.000000 0.000000 51.369019 -70.848063 52.246316 -46.158931 -2.296115 -21.151286 51.036656 -3.669745 -2.073833 -16.781191 -3.921504 17.630206 0.000000 0.000000 0.000000 51.369019 -70.848063 52.246316 0.000001 0.000000 0.000000 7.783877 3.331428 4.551006 12.734720 6.382428 6.620583 0.000000 0.000000 0.000000 12.753674 6.413143 6.553429 1.490256 -0.163982 0.903083 0.000000 0.000000 0.000000 12.753674 6.413143 6.553429 0.607736 -2.121758 -11.501770 -46.348755 -29.026190 -92.588713 0.000003 -20.910897 0.000015 0.000000 0.000000 0.000000 12.753674 6.413143 6.553429 -0.771688 15.442479 22.219743 -54.175572 25.033914 76.267757 0.000002 3.450914 -0.000001 0.000000 0.000000 0.000000 
-6.568605 85.603996 0.685242 0.000000 0.000000 0.000000 51.306168 -70.822594 52.175856 -57.324835 1.847753 -1.966348 45.955227 -9.762483 1.560766 -5.366406 -0.322739 -1.077609 0.000000 0.000000 0.000000 51.306168 -70.822594 52.175856 -46.099204 -2.294972 -21.209660 50.954676 -3.634996 -2.042122 -16.743761 -3.962377 17.656292 0.000000 0.000000 0.000000 51.306168 -70.822594 52.175856 0.000000 0.000000 0.000000 7.785090 3.325164 4.535484 12.748114 6.372642 6.603429 0.000000 0.000000 0.000000 12.767397 6.402618 6.536457 1.559088 -0.144262 0.904034 0.000000 0.000000 0.000000 12.767397 6.402618 6.536457 0.605217 -2.134141 -11.471692 -46.290384 -29.015333 -92.588508 -0.000006 -20.949857 -0.000003 0.000000 0.000000 0.000000 12.767397 6.402618 6.536457 -0.765677 15.424787 22.200341 -53.294750 25.069704 75.930817 -0.000012 4.975368 0.000006 0.000000 0.000000 0.000000 
-6.563799 85.611969 0.742407 0.000000 0.000000 0.000000 51.246298 -70.793873 52.109381 -57.314207 1.874979 -2.016667 45.918860 -9.741760 1.569388 -5.320197 -0.328702 -1.038968 0.000000 0.000000 0.000000 51.246298 -70.793873 52.109381 -46.041554 -2.279426 -21.271263 50.875463 -3.623300 -2.001060 -16.704162 -3.989213 17.689106 0.000000 0.000000 0.000000 51.246298 -70.793873 52.109381 0.000001 0.000000 0.000000 7.785858 3.323517 4.520595 12.761467 6.360628 6.585527 0.000000 0.000000 0.000000 12.782057 6.390458 6.516429 1.627933 -0.126226 0.904906 0.000000 0.000000 0.000000 12.782057 6.390458 6.516429 0.622108 -2.152991 -11.444248 -46.248970 -29.013530 -92.576773 0.000001 -20.995865 0.000006 0.000000 0.000000 0.000000 12.782057 6.390458 6.516429 -0.770514 15.402019 22.186667 -52.826937 25.199966 75.725372 0.000013 5.532875 -0.000012 0.000000 0.000000 0.000000 
-6.555666 85.618393 0.801989 0.000000 0.000000 0.000000 51.185328 -70.761518 52.042302 -57.310307 1.862645 -2.074585 45.895139 -9.669845 1.553542 -5.305241 -0.335367 -0.997573 0.000000 0.000000 0.000000 51.185328 -70.761518 52.042302 -45.995491 -2.278549 -21.335923 50.797408 -3.586426 -1.974987 -16.662450 -4.031272 17.720747 0.000000 0.000000 0.000000 51.185328 -70.761518 52.042302 0.000001 0.000000 0.000000 7.784146 3.318324 4.505244 12.772269 6.352053 6.564571 0.000000 0.000000 0.000000 12.792371 6.381427 6.496823 1.696654 -0.106829 0.906286 0.000000 0.000000 0.000000 12.792371 6.381427 6.496823 0.609492 -2.164703 -11.415742 -46.173749 -29.018632 -92.563898 -0.000009 -21.049330 0.000004 0.000000 0.000000 0.000000 12.792371 6.381427 6.496823 -0.767244 15.378461 22.175152 -52.336290 25.329847 75.550000 0.000011 6.420243 -0.000006 0.000000 0.000000 0.000000 
-6.544775 85.622223 0.865128 0.000000 0.000000 0.000000 51.119902 -70.725926 51.969912 -57.316837 1.849585 -2.138829 45.872800 -9.621070 1.541095 -5.279481 -0.342068 -0.957319 0.000000 0.000000 0.000000 51.119902 -70.725926 51.969912 -45.952410 -2.272525 -21.405519 50.723703 -3.570065 -1.946942 -16.620246 -4.057262 17.763206 0.000000 0.000000 0.000000 51.119902 -70.725926 51.969912 0.000000 0.000000 0.000000 7.784981 3.310887 4.491804 12.781144 6.342115 6.541855 0.000000 0.000000 0.000000 12.800697 6.371301 6.475298 1.765421 -0.088816 0.908018 0.000000 0.000000 0.000000 12.800697 6.371301 6.475298 0.617855 -2.182644 -11.388318 -46.114914 -29.034274 -92.541734 0.000009 -21.111712 0.000003 0.000000 0.000000 0.000000 12.800697 6.371301 6.475298 -0.768004 15.352008 22.171639 -51.911545 25.479597 75.377107 -0.000004 6.967192 0.000010 0.000000 0.000000 0.000000 
-6.530590 85.625038 0.931314 0.000000 0.000000 0.000000 51.046245 -70.687424 51.888134 -57.319637 1.881029 -2.206325 45.841962 -9.592401 1.547471 -5.231577 -0.355421 -0.886791 0.000000 0.000000 0.000000 51.046245 -70.687424 51.888134 -45.902293 -2.246068 -21.476514 50.651023 -3.554918 -1.901766 -16.575536 -4.098367 17.803865 0.000000 0.000000 0.000000 51.046245 -70.687424 51.888134 0.000000 -0.000001 0.000000 7.785700 3.304090 4.481278 12.794070 6.329343 6.515326 0.000000 0.000000 0.000000 12.812252 6.361075 6.448845 1.834106 -0.070178 0.911397 0.000000 0.000000 0.000000 12.812252 6.361075 6.448845 0.608167 -2.193263 -11.355072 -46.041202 -29.062305 -92.519092 -0.000002 -21.185879 0.000008 0.000000 0.000000 0.000000 12.812252 6.361075 6.448845 -0.759573 15.334663 22.170719 -51.485679 25.634620 75.198477 -0.000001 7.656912 0.000008 0.000000 0.000000 0.000000 
-6.513218 85.625336 1.002304 0.000000 0.000000 0.000000 50.961872 -70.646805 51.793806 -57.335866 1.853721 -2.284344 45.839886 -9.531127 1.521192 -5.237911 -0.369824 -0.815314 0.000000 0.000000 0.000000 50.961872 -70.646805 51.793806 -45.866745 -2.256345 -21.554170 50.577926 -3.530321 -1.887931 -16.529268 -4.125490 17.855926 0.000000 0.000000 0.000000 50.961872 -70.646805 51.793806 0.000001 0.000000 0.000000 7.786672 3.298630 4.464021 12.809825 6.318499 6.496765 0.000000 0.000000 0.000000 12.828887 6.349019 6.429880 1.902802 -0.053015 0.911207 0.000000 0.000000 0.000000 12.828887 6.349019 6.429880 0.616130 -2.212807 -11.335210 -45.984467 -29.111065 -92.484060 -0.000002 -21.276673 0.000016 0.000000 0.000000 0.000000 12.828887 6.349019 6.429880 -0.757186 15.311358 22.171901 -51.116555 25.809125 75.054579 0.000005 8.195416 -0.000008 0.000000 0.000000 0.000000 
